<?xml version='1.0' encoding='utf-8'?>
<svg xmlns="http://www.w3.org/2000/svg" width="844" height="855" viewBox="0 0 844 855" fill="none"> <g clip-path="url(#clip0)"> <path d="M244 387C252.5 383.161 268.7 417 271.5 421C273.39 423.7 277.593 440.52 279.5 448C280.25 458.167 284 476.4 284 506C276.5 506 258 502.2 244 487C233.667 458.333 219.2 398.2 244 387Z" fill="#E8AFA5"/> <path d="M293 274C295 264.8 303.5 257.5 307.5 255C306.167 250 312.7 241.1 349.5 245.5C364.833 241.667 403.1 233 433.5 229C442.167 228.167 469.8 230.3 511 245.5C528.333 258.167 561.5 292.2 555.5 327L560.5 428.5C564 415.167 561.8 432.8 571 386C575.333 374.667 572 359.5 569 307C578 263 599.3 196.4 580.5 176C569.5 164.167 515.9 130.1 489.5 120.5C444 107 555.5 96.5001 404 100.5C252.5 104.5 234 207.5 234 207.5C234 207.5 245.7 302.2 252.5 323L256 395C258.5 398.5 259 398.5 269 417.5L278.5 461C279 449.5 283.7 415.5 282.5 403.5C281 388.5 274.5 373 275.5 362C276.3 353.2 287.5 347.333 293 345.5C292.167 325.5 291 283.2 293 274Z" fill="#311302"/> <path d="M561 430L563.5 409C563.5 404.2 569.5 387.667 572.5 380C579.213 383.73 581.232 390.502 581.474 389.374L581.5 389C581.5 389.169 581.492 389.292 581.474 389.374L579.5 418C593.1 424.4 585.167 454.333 579.5 468.5C575.5 481.7 559.5 494.333 552 499C552 493 558 450.5 561 430Z" fill="#DFAAA1"/> <path d="M226.5 672C230.1 664 237.333 657.667 240.5 655.5C238.1 648.7 299.833 696.333 331 721C351.333 734 398.9 761.2 426.5 766C454.1 770.8 472.5 754.5 482.5 746C482.5 731.5 479 715.5 485 701L482.5 677L506 693.5C542.5 717.833 620.6 768.2 641 775C661.4 781.8 693.833 830.833 707.5 854.5H0L31 828.5C46.8333 816.333 81.7 789.9 94.5 781.5C130.167 750.5 203 687.2 209 682C213.333 682 222.9 680 226.5 672Z" fill="#3C4458"/> <path d="M288.5 590.5L281.5 481C298.5 500.833 332.2 546.3 343 565.5C356.5 589.5 380.5 600 407.5 605C429.1 609 486.5 594.333 512.5 586.5L507 611C499.667 642.5 487.8 708.1 485 716.5C482.2 724.9 480.667 734.833 483 745.5C483 745.5 458.5 771 432 768C405.5 765 357.553 739.878 339.5 729C323.9 719.6 278 677.5 250.5 660.5C258.167 650.833 275.2 630.3 282 625.5C288.8 620.7 289.167 600.167 288.5 590.5Z" fill="#ECBCB4"/> <path d="M290 532C284.5 514.5 279 461 279 461C275 403.167 269.9 283.3 281.5 266.5C295 252.167 325.4 222.2 339 217C356 210.5 431.5 202 480 217C500.5 230.5 542.5 259.3 546.5 266.5C551.5 275.5 551.5 290.5 557 311.5C562.5 332.5 561.5 398.5 561.5 398.5C561.5 398.5 558.5 427.333 561.5 426L551.5 496.5C550.333 513.167 545 551.5 533 571.5C525.5 583.833 508.9 609.3 502.5 612.5C496.1 615.7 479.5 630.833 472 638C463 639.833 441.4 643.4 427 643C409 642.5 391.5 636.5 381.5 634.5C359 630 350.5 626 337 613.5C325.294 602.661 317.5 590 311.5 580C304.578 568.464 294.559 546.507 290 532Z" fill="#ECBCB4"/> <path d="M305 570C289.4 540.4 283 506.5 280.5 489.5C280.5 513.5 293.5 557 298 573.5C301.954 588 323.5 628 357 640.5C371.887 646.055 433.5 670.5 506.5 609C498 615.741 451.5 649 402.5 640.5C390.613 638.438 357.5 628.833 352.5 625.5L352.397 625.432C347.192 621.963 324.369 606.753 305 570Z" fill="#E9B3AA"/> <path d="M483 746C437.5 803.5 368.333 745.833 358 740C378.4 740 450.5 713.5 507.5 610.5C507.5 610.5 482 726.5 483 746Z" fill="#E9B3AA"/> <path d="M526.5 248.5L547.5 267.5L559 322.5L561.5 358V390V399.5L560.5 411.5V422V426C560.5 447.5 555 480 555 480L546.5 533.5L541.808 549.232C540.944 552.666 539.98 555.912 538.909 558.953L538 562L537.228 563.341C535.044 568.586 532.481 573.097 529.497 576.768L528.5 578.5H528C528.51 577.945 529.01 577.368 529.497 576.768L537.228 563.341C537.815 561.93 538.375 560.467 538.909 558.953L541.808 549.232C559.406 479.276 535.403 331.174 526.5 248.5Z" fill="#E9B3AA"/> </g> <defs> <clipPath id="clip0"> <rect width="844" height="855" fill="white"/> </clipPath> </defs> </svg>